PathFileType	4	(X/Y/Z)	C:/Users/opensim2020/Desktop/walking_exp_matlab/subject03_walking06_straight_04.trc	
DataRate	CameraRate	NumFrames	NumMarkers	Units	OrigDataRate	OrigDataStartFrame	OrigNumFrames	
100.00	100.00	6	44	mm	100.00	2833	278	
Frame#	Time	LFHD			RFHD			LBHD			RBHD			C7			T10			CLAV			STRN			RBAK			LSHO			LUPA			LELB			LFRM			LWRA			LWRB			LFIN			RSHO			RUPA			RELB			RFRM			RWRA			RWRB			RFIN			LASI			RASI			LPSI			RPSI			LTHI			LKNE			LTIB			LANK			LHEE			LTOE			RTHI			RKNE			RTIB			RANK			RHEE			RTOE			*39			*40			*41			*42			*43			
		X1	Y1	Z1	X2	Y2	Z2	X3	Y3	Z3	X4	Y4	Z4	X5	Y5	Z5	X6	Y6	Z6	X7	Y7	Z7	X8	Y8	Z8	X9	Y9	Z9	X10	Y10	Z10	X11	Y11	Z11	X12	Y12	Z12	X13	Y13	Z13	X14	Y14	Z14	X15	Y15	Z15	X16	Y16	Z16	X17	Y17	Z17	X18	Y18	Z18	X19	Y19	Z19	X20	Y20	Z20	X21	Y21	Z21	X22	Y22	Z22	X23	Y23	Z23	X24	Y24	Z24	X25	Y25	Z25	X26	Y26	Z26	X27	Y27	Z27	X28	Y28	Z28	X29	Y29	Z29	X30	Y30	Z30	X31	Y31	Z31	X32	Y32	Z32	X33	Y33	Z33	X34	Y34	Z34	X35	Y35	Z35	X36	Y36	Z36	X37	Y37	Z37	X38	Y38	Z38	X39	Y39	Z39	X40	Y40	Z40	X41	Y41	Z41	X42	Y42	Z42	X43	Y43	Z43	X44	Y44	Z44	

105	1.040	-931.00684	317.80682	1591.99634	-1062.98608	331.25500	1599.73328	-922.09747	451.35995	1570.34619	-1052.74573	459.63919	1576.78943	-976.23615	510.08383	1410.06848	-975.65350	552.69550	1094.31909	-990.43469	394.06393	1327.40002	-985.62335	352.81760	1163.14868	-1063.05090	579.93060	1231.16516	-832.68335	418.90240	1367.12451	-755.12195	379.44577	1181.24683	-743.63910	335.36670	1066.19470	-753.94012	269.95947	954.56702	-791.73956	220.11720	849.14166	-736.54657	229.96182	848.92798	-751.73828	186.40508	778.60651	-1144.61145	457.65399	1350.86157	-1212.52563	480.48230	1127.27478	-1225.80933	475.49097	1014.54742	-1228.65063	472.80124	877.70123	-1197.77283	447.91766	779.56799	-1237.21936	484.91333	777.95325	-1228.94812	469.30750	704.55133	-864.01624	382.99103	931.55847	-1102.94470	390.53375	929.31860	-911.62695	546.59198	954.24597	-1059.72546	550.76776	953.13007	-831.41400	470.75754	633.98145	-869.18610	498.73779	457.96906	-870.74548	587.88159	279.89536	-915.12408	645.34601	76.63715	-953.45471	688.35687	46.51280	-930.27606	496.70239	28.62251	-1154.56299	380.13126	637.99359	-1124.12341	299.98718	476.51617	-1127.16882	304.41541	287.38885	-1086.10376	273.02356	72.00729	-1026.15027	301.60388	35.99961	-1091.50818	131.02055	49.67899	-978.37848	393.23080	1666.08350												 
106	1.050	-932.00348	308.41083	1590.78052	-1064.02783	321.89725	1598.41931	-923.04156	441.92059	1569.05737	-1053.69434	450.24026	1575.38074	-977.17804	500.77512	1408.84338	-976.91254	543.61963	1093.10498	-991.20160	384.73578	1326.02478	-986.25543	343.69760	1161.89844	-1063.88928	570.57471	1229.86658	-833.58716	409.84671	1365.84778	-755.70258	369.82053	1180.45410	-744.10516	324.67972	1065.85718	-754.78082	257.29398	955.51135	-793.09601	205.42740	851.36951	-737.98834	215.48959	850.52228	-753.41742	170.27063	781.44208	-1145.46289	448.22702	1349.55127	-1213.26965	473.09702	1126.11462	-1226.27478	469.07776	1013.34399	-1228.99536	467.74762	876.47656	-1198.28638	443.56821	778.19220	-1237.35364	480.79721	776.82489	-1229.19910	465.76285	703.32062	-864.78064	374.12173	930.38617	-1103.75232	380.88681	927.69421	-912.97882	537.79053	952.98413	-1061.12158	541.21887	951.63159	-831.86456	463.71097	633.34009	-869.44104	493.30698	457.45877	-870.82220	584.70361	280.37292	-914.88208	644.65991	77.63766	-953.02454	687.88745	47.74880	-930.24982	496.60617	28.55016	-1155.13940	373.44940	635.28448	-1123.45605	291.96674	474.40277	-1127.78967	289.04306	286.48578	-1088.42053	248.04257	72.16640	-1028.52722	275.86911	35.49419	-1092.29639	104.82930	53.22203	-973.38727	384.13016	1668.96802												 
107	1.060	-933.02301	298.97260	1589.70996	-1065.07275	312.48032	1597.18188	-924.06104	432.54169	1567.88232	-1054.70569	440.83557	1574.05139	-978.20093	491.32632	1407.66589	-978.29956	534.38397	1091.92395	-992.08832	375.36105	1324.69983	-986.95233	334.41467	1160.42749	-1064.90967	561.10004	1228.59119	-834.56085	400.88077	1364.61682	-756.28357	360.15845	1179.68921	-744.59442	314.24750	1065.48193	-755.66937	244.96161	956.40369	-794.57129	191.02341	853.54602	-739.56732	201.34894	852.03741	-755.17566	154.56931	784.24597	-1146.37341	438.65952	1348.28186	-1213.92749	465.39584	1125.06934	-1226.80811	462.44107	1012.21960	-1229.38965	462.36151	875.36444	-1198.66785	438.87057	776.85358	-1237.53711	476.38162	775.77466	-1229.44971	461.85861	702.18335	-865.61871	365.17062	929.25000	-1104.50818	371.01840	926.13324	-914.42291	528.80811	951.73273	-1062.61169	531.53802	950.19952	-832.30682	456.45236	632.66028	-869.69781	487.81073	457.00922	-870.89697	581.42261	280.93695	-914.69250	644.06073	78.88243	-952.96924	687.73444	49.69274	-930.24402	496.51114	28.47013	-1155.20361	366.71713	632.57794	-1123.04419	283.87360	472.25464	-1128.39001	274.42767	285.76126	-1090.34338	225.26324	72.82750	-1030.85889	252.37341	35.36974	-1092.56824	80.92279	57.30077	-985.89453	374.24683	1665.33484												 
108	1.070	-934.10950	289.49988	1588.69434	-1066.14526	303.08484	1596.05762	-925.07928	422.96515	1566.61206	-1055.68054	431.38892	1572.70239	-979.38312	481.83694	1406.48889	-979.73328	525.13062	1090.80896	-992.99951	365.86194	1323.46948	-987.73969	325.12982	1159.15796	-1066.06750	551.51813	1227.40527	-835.54810	391.73270	1363.36719	-757.14612	350.82159	1178.88855	-745.17468	303.83917	1065.02783	-756.58282	233.01915	957.20349	-796.05902	177.11528	855.68616	-741.20587	187.67601	853.51575	-757.06110	139.35199	787.01245	-1147.49585	429.05042	1347.22058	-1214.64124	457.41238	1124.07300	-1227.42725	455.50467	1011.16058	-1229.79321	456.67252	874.25769	-1198.87695	433.59323	775.71912	-1237.67712	471.64847	774.84760	-1229.58704	457.51675	701.31818	-866.44586	356.05060	928.10052	-1105.26306	360.86154	924.64764	-916.01404	519.61987	950.50403	-1064.20044	521.63434	948.85114	-832.67114	449.11066	632.10962	-869.86078	482.09882	456.61414	-870.88422	578.02313	281.60324	-914.47998	643.24768	80.27753	-952.64307	687.38269	51.60228	-930.18848	496.37125	28.42793	-1155.84985	359.26840	630.56549	-1122.66296	275.81161	470.11652	-1129.05151	260.58688	285.22687	-1091.79065	204.79204	73.58315	-1032.89319	231.22581	35.17624	-1092.29651	59.53738	61.65816	-975.59094	365.19241	1665.74585												 
109	1.080	-935.16217	280.05701	1587.70532	-1067.21252	293.65530	1595.01245	-926.09808	413.48569	1565.40930	-1056.79431	421.90717	1571.47412	-980.61011	472.46164	1405.47241	-981.21674	515.68298	1089.71570	-994.01910	356.32755	1322.33887	-988.57513	315.69028	1158.18726	-1067.38049	541.80664	1226.29944	-836.57471	382.61362	1362.19421	-758.04633	341.33987	1177.96045	-745.85651	293.85196	1064.52075	-757.70221	221.32172	957.93671	-797.71118	163.65198	857.74622	-742.94342	174.46445	854.88989	-759.03381	124.63190	789.68372	-1148.72717	419.20111	1346.18384	-1215.39990	449.15500	1123.11475	-1228.02893	448.24036	1010.15326	-1230.18652	450.64905	873.27026	-1199.32654	428.14441	774.55389	-1237.81555	466.54074	773.89697	-1229.66028	452.92883	700.24591	-866.72534	347.20996	926.93280	-1106.01941	350.61047	923.28278	-917.63647	510.34445	949.37708	-1065.85974	511.57144	947.74152	-832.86792	441.68231	631.60437	-869.93982	476.19455	456.26370	-870.90167	574.41888	282.34393	-914.09778	642.34448	81.76218	-952.22058	686.96094	53.74844	-930.11810	496.29187	28.38024	-1156.79150	351.12387	628.89185	-1122.69055	267.55197	468.20313	-1129.49463	247.92912	284.72983	-1092.78271	186.87460	74.37690	-1034.29761	212.75534	35.09833	-1091.65076	40.81513	65.54845	-982.66870	355.93546	1661.34204												 
110	1.090	-936.25159	270.63239	1586.89368	-1068.31860	284.17273	1594.13232	-927.25220	404.08438	1564.47021	-1057.92993	412.41885	1570.34363	-981.95361	462.84543	1404.40808	-982.68164	505.93274	1088.66882	-995.04291	346.69193	1321.34473	-989.45831	306.09546	1157.16870	-1068.82361	531.99152	1225.27063	-837.67206	373.49991	1361.12402	-759.06696	332.14795	1177.14966	-746.62720	284.08429	1064.02100	-758.79938	210.05034	958.61768	-799.37952	150.58556	859.79321	-744.71576	161.75742	856.18829	-761.01520	110.49751	792.34424	-1150.02966	409.38837	1345.27429	-1216.13586	440.53595	1122.31482	-1228.74609	440.61496	1009.21460	-1230.59680	444.18481	872.33948	-1199.59973	422.52478	773.36981	-1238.02783	460.97137	773.11377	-1229.81897	447.93933	699.34259	-867.40179	337.92654	925.90338	-1106.75696	340.18320	922.20642	-919.39050	500.79395	948.35400	-1067.59119	501.39069	946.83722	-833.59448	434.18597	631.30109	-870.01050	470.04697	456.03503	-870.84039	570.50122	283.25424	-913.76343	641.41089	83.62724	-951.77057	686.45056	56.20281	-930.02234	496.15524	28.35854	-1157.74084	342.14188	627.69580	-1122.81848	259.14743	466.62863	-1130.02527	236.34940	284.28357	-1093.32031	171.59319	74.68999	-1035.24304	197.06592	34.78220	-1090.70642	25.00363	68.25325	-977.67139	346.26883	1664.79736												 
